<svg xmlns="http://www.w3.org/2000/svg" viewBox="0 0 104 104" fill="#1C1917" role="img" aria-label="Pinecone">
  <path d="M39.028 91.41a5.907 5.907 0 1 1 0 11.813a5.907 5.907 0 0 1 0-11.814m32.77-10.778l5.837 1.73L73.002 98a3.044 3.044 0 0 1-3.125 2.172l-1.432-.098l-.035.028l-14.87-1.043l.414-6.074l9.99.678l-6.54-9.435l5.003-3.469l6.55 9.447zm-63.53-10.81l6.072.43l-.711 9.989l9.418-6.55l3.476 4.998l-9.43 6.556l9.626 2.836l-1.72 5.84l-15.713-4.629a3.044 3.044 0 0 1-2.176-3.135zm39.209-8.506l10.96 13.232l-4.94 4.092l-6.522-7.875l-2.115 12.107l-6.318-1.104l2.116-12.127l-8.78 5.178l-3.257-5.527l14.758-8.694a3.21 3.21 0 0 1 4.098.718m30.664-8.878l5.475-2.979l7.976 14.66a3.116 3.116 0 0 1-.692 3.84l-1.129.976l-11.514 10.02l-4.09-4.702l7.74-6.735l-11.53-2.077l1.106-6.134l11.523 2.076zM13.574 37.112l4.124 4.673l-7.635 6.733l11.553 2.017l-1.071 6.14L8.98 54.658l4.967 8.98l-5.454 3.018L.39 52.005a3.116 3.116 0 0 1 .664-3.844zm39.05-4.822l10.922 13.197l-4.94 4.09l-6.522-7.878l-2.115 12.11l-6.318-1.104l2.11-12.08l-8.748 5.129l-3.243-5.534l13.437-7.878l.013-.051l.06.007l1.251-.73a3.21 3.21 0 0 1 4.092.722m14.075-6.49l2.39-5.757l15.452 6.413a3.116 3.116 0 0 1 1.875 3.42l-.258 1.43l-2.638 15.01l-6.139-1.081l1.769-10.048l-10.252 5.666l-3.013-5.457l10.272-5.67zM37.262 14.456l.265 6.227l-10.208.436l7.7 8.799l-4.691 4.104l-7.712-8.812l-1.797 10.06l-6.135-1.097l2.94-16.44a3.116 3.116 0 0 1 2.935-2.565l1.444-.064l.033-.024zm20.88-13.28l10.874 13.28l-4.963 4.063l-6.453-7.883l-2.177 12.095l-6.313-1.136l2.18-12.123l-8.81 5.152l-3.237-5.538l14.8-8.648a3.21 3.21 0 0 1 4.1.737"/>
</svg>
